<?xml version="1.0" encoding="iso-8859-1"?>
<!-- Generator: Adobe Illustrator 18.1.1, SVG Export Plug-In . SVG Version: 6.00 Build 0)  -->
<svg version="1.1" id="Capa_1" xmlns="http://www.w3.org/2000/svg" xmlns:xlink="http://www.w3.org/1999/xlink" x="0px" y="0px"
	 viewBox="0 0 136.045 136.045" style="enable-background:new 0 0 136.045 136.045;" xml:space="preserve">
<g>
	<g>
		<path fill="white" d="M107.028,74.783H94.557c6.617-10.191,11.898-22.149,11.898-34.477
			c0-21.23-17.214-38.433-38.439-38.433S29.578,19.088,29.578,40.306c0,12.322,5.281,24.279,11.898,34.477H29.005L0,134.171h136.045
			L107.028,74.783z M68.022,9.553c16.958,0,30.759,13.795,30.759,30.753c0,22.549-21.057,44.775-30.765,53.821
			c-9.714-9.022-30.747-31.189-30.747-53.821C37.263,23.348,51.064,9.553,68.022,9.553z"/>
		<circle style="fill:#010002;" cx="68.022" cy="40.3" r="15.377"/>
	</g>
</g>
</svg>
