<svg id="Layer_1" enable-background="new 0 0 511 511" height="512" viewBox="0 0 511 511" width="512" xmlns="http://www.w3.org/2000/svg"><g><path d="m255.5 0c-141.109 0-255.5 114.391-255.5 255.5h511c0-141.109-114.391-255.5-255.5-255.5z" fill="#93dcfc"/><path d="m507.459 212.987c-6.632 4.753-12.312 10.21-25.356 10.21-23.094 0-23.094-17.116-46.188-17.116-23.091 0-23.091 17.116-46.182 17.116-.942 0-1.845-.028-2.712-.083-3.294-.208-3.097-5.143.204-5.143h.765c5.762 0 10.755-4.406 11.037-10.161.004-.088.008-.175.01-.263.15-5.976 4.901-10.796 10.879-10.796h41.241c6.144 0 11.078-5.179 10.675-11.409-.368-5.686-5.343-9.986-11.041-9.986h-.059c-2.449 0-3.941-2.568-2.869-4.77.776-1.595 1.168-3.413 1.052-5.332-.343-5.702-5.306-10.037-11.018-10.037h-60.227c-5.713 0-10.676 4.335-11.018 10.038-.005.076-.008.152-.011.228-.216 5.481-4.576 9.873-10.061 9.873h-40.613c-5.698 0-10.673 4.3-11.041 9.986-.403 6.23 4.531 11.409 10.675 11.409 1.988 0 3.162 2.305 1.92 3.858-1.564 1.955-2.455 4.472-2.321 7.201.013.262.035.522.068.778.772 6.163-2.835 12.016-8.853 13.555-2.593.663-5.554 1.054-9.041 1.054-23.09 0-23.09-17.116-46.18-17.116-22.556 0-23.088 17.101-44.63 17.853h-29.852c-1.615 0-3.081-.946-3.747-2.418-1.333-2.947-4.614-4.663-7.718-3.756-1.972.577-3.411 1.961-4.13 3.647-.635 1.488-2.007 2.527-3.625 2.527h-24.54c-1.768 0-3.372-1.035-4.1-2.645-2.422-5.353-9.698-4.661-11.73-.004-.726 1.665-2.472 2.652-4.288 2.654l-24.904.03c-2.057.003-3.74-1.665-3.724-3.721 0-.064.002-.085.004-.053-3.356-40.314 26.991-68.019 60.683-68.019 5.469 0 10.298-3.975 10.935-9.407.031-.267.053-.532.065-.795.226-4.99 4.553-8.818 9.549-8.818h11.965c5.04 0 9.258 3.91 9.541 8.942.012.222.031.441.058.667.646 5.407 5.358 9.412 10.804 9.412h35.86c.04 0 .081 0 .121-.001 8.28-.092 16.563.693 24.441 3.244 3.412 1.105 7.007 1.781 10.721 1.965 6.499.321 12.693-.835 18.279-3.161.071-.03.128-.071.197-.102l.024.011c15.748-6.661 26.593-22.642 25.621-41.029-1.112-21.031-18.029-38.232-39.041-39.665-19.809-1.351-36.94 11.028-42.823 28.567l.001.002c-1.707 5.084-2.468 10.603-2.073 16.348.299 4.355 1.285 8.529 2.832 12.426h-5.718-5.773-2.652c-4.53 0-8.203-3.672-8.203-8.203v-2.283c0-4.556 3.619-8.662 8.17-8.437.062.003.119-.008.18-.008 5.698 0 10.673-4.3 11.041-9.986.403-6.231-4.531-11.409-10.675-11.409h-85.197c-5.563 0-10.368 4.155-10.886 9.693-.031.328-.045.644-.047.961-.023 5.862-4.649 10.652-10.511 10.652-.065.003-.13.006-.195.008-6.282.254-10.689-6.159-8.253-11.955.144-.344.289-.687.435-1.03 8.2-19.275-16.362-37-32.388-20.322-38.288 39.822-62.615 90.775-69.357 145.47-1.247 10.12-1.905 20.423-1.933 30.874l510.848-7.473c-.366-11.664-1.518-23.129-3.397-34.347z" fill="#81b8fd"/><g><path d="m509.595 228.628c-7.656 5.013-13.072 11.686-27.492 11.686-23.094 0-23.094-17.116-46.188-17.116-23.091 0-23.091 17.116-46.182 17.116s-23.091-17.116-46.183-17.116c-23.09 0-23.09 17.116-46.181 17.116-23.09 0-23.09-17.116-46.18-17.116-22.556 0-23.088 17.101-44.63 17.853h-9.295l128.124 260.274c107.135-30.401 185.612-128.948 185.612-245.825 0-9.077-.481-18.04-1.405-26.872z" fill="#94b938"/><g fill="#a0c83d"><path d="m501.375 274.738c-5.5 4.076-9.844 7.296-19.272 7.296s-13.772-3.22-19.272-7.296c-6.211-4.603-13.25-9.82-26.916-9.82-13.665 0-20.703 5.217-26.913 9.821-5.499 4.076-9.842 7.296-19.268 7.296s-13.77-3.22-19.269-7.296c-6.21-4.603-13.248-9.82-26.913-9.82s-20.703 5.217-26.913 9.82c-5.499 4.076-9.842 7.296-19.268 7.296s-13.769-3.22-19.268-7.296c-6.21-4.603-13.248-9.82-26.912-9.82s-20.701 5.217-26.91 9.821c-5.498 4.076-9.841 7.296-19.265 7.296-9.425 0-13.769-3.22-19.267-7.296-6.21-4.603-13.248-9.821-26.912-9.821v12.837c9.425 0 13.769 3.22 19.267 7.296 6.21 4.603 13.248 9.821 26.912 9.821s20.701-5.217 26.91-9.821c5.498-4.076 9.841-7.296 19.265-7.296 9.425 0 13.769 3.22 19.267 7.296 6.21 4.603 13.248 9.821 26.913 9.821s20.703-5.217 26.913-9.82c5.499-4.076 9.842-7.296 19.268-7.296s13.77 3.22 19.269 7.296c6.21 4.603 13.248 9.82 26.913 9.82s20.703-5.217 26.912-9.82c5.499-4.076 9.843-7.296 19.269-7.296 9.428 0 13.772 3.22 19.272 7.296 6.211 4.603 13.25 9.82 26.916 9.82s20.705-5.217 26.916-9.82c.099-.074.196-.145.295-.218.608-5.315 1.071-10.674 1.347-16.083-3.597 1.775-6.525 3.94-9.286 5.986z"/><path d="m501.375 324.576c-5.5 4.076-9.844 7.296-19.272 7.296s-13.772-3.22-19.272-7.296c-6.211-4.603-13.25-9.82-26.916-9.82-13.665 0-20.703 5.217-26.913 9.821-5.499 4.076-9.842 7.296-19.268 7.296s-13.77-3.22-19.269-7.296c-6.21-4.603-13.248-9.82-26.913-9.82s-20.703 5.217-26.913 9.82c-5.499 4.076-9.842 7.296-19.268 7.296s-13.769-3.22-19.268-7.296c-6.21-4.603-13.248-9.82-26.912-9.82s-20.701 5.217-26.91 9.821c-5.498 4.076-9.841 7.296-19.265 7.296-9.425 0-13.769-3.22-19.267-7.296-6.21-4.603-13.248-9.821-26.912-9.821v12.837c9.425 0 13.769 3.22 19.267 7.296 6.21 4.603 13.248 9.821 26.912 9.821s20.701-5.217 26.91-9.821c5.498-4.076 9.841-7.296 19.265-7.296 9.425 0 13.769 3.22 19.267 7.296 6.21 4.603 13.248 9.821 26.913 9.821s20.703-5.217 26.913-9.82c5.499-4.076 9.842-7.296 19.268-7.296s13.77 3.22 19.269 7.296c6.21 4.603 13.248 9.82 26.913 9.82s20.703-5.217 26.912-9.82c5.499-4.076 9.843-7.296 19.269-7.296 9.428 0 13.772 3.22 19.272 7.296 6.211 4.603 13.25 9.82 26.916 9.82 5.517 0 9.942-.859 13.68-2.176 2.151-5.938 4.087-11.979 5.801-18.113-.069.05-.14.102-.209.154z"/><path d="m462.832 374.414c-6.211-4.603-13.25-9.82-26.916-9.82-13.665 0-20.703 5.217-26.913 9.821-5.499 4.076-9.842 7.296-19.268 7.296s-13.77-3.22-19.269-7.296c-6.21-4.603-13.248-9.82-26.913-9.82s-20.703 5.217-26.913 9.82c-5.499 4.076-9.842 7.296-19.268 7.296s-13.769-3.22-19.268-7.296c-6.21-4.603-13.248-9.82-26.912-9.82s-20.701 5.217-26.91 9.821c-5.498 4.076-9.841 7.296-19.265 7.296-9.425 0-13.769-3.22-19.267-7.296-6.21-4.603-13.248-9.821-26.912-9.821v12.837c9.425 0 13.769 3.22 19.267 7.296 6.21 4.603 13.248 9.821 26.912 9.821s20.701-5.217 26.91-9.821c5.498-4.076 9.841-7.296 19.265-7.296 9.425 0 13.769 3.22 19.267 7.296 6.21 4.603 13.248 9.821 26.913 9.821s20.703-5.217 26.913-9.82c5.499-4.076 9.842-7.296 19.268-7.296s13.77 3.22 19.269 7.296c6.21 4.603 13.248 9.82 26.913 9.82s20.703-5.217 26.912-9.82c5.499-4.076 9.843-7.296 19.269-7.296 9.428 0 13.772 3.22 19.272 7.296 4.217 3.125 8.822 6.529 15.617 8.395 2.447-3.82 4.785-7.717 7.031-11.672-6.614-.836-10.412-3.635-15.004-7.038z"/><path d="m452.76 417.894c-4.355-2.025-9.686-3.462-16.844-3.462-13.665 0-20.703 5.217-26.913 9.821-5.499 4.076-9.842 7.296-19.268 7.296s-13.77-3.22-19.269-7.296c-6.21-4.603-13.248-9.82-26.913-9.82s-20.703 5.217-26.913 9.82c-5.499 4.076-9.842 7.296-19.268 7.296s-13.769-3.22-19.268-7.296c-6.21-4.603-13.248-9.82-26.912-9.82s-20.701 5.217-26.91 9.821c-5.498 4.076-9.841 7.296-19.265 7.296-9.425 0-13.769-3.22-19.267-7.296-6.21-4.603-13.248-9.821-26.912-9.821v12.837c9.425 0 13.769 3.22 19.267 7.296 6.21 4.603 13.248 9.821 26.912 9.821s20.701-5.217 26.91-9.821c5.498-4.076 9.841-7.296 19.265-7.296 9.425 0 13.769 3.22 19.267 7.296 6.21 4.603 13.248 9.821 26.913 9.821s20.703-5.217 26.913-9.82c5.499-4.076 9.842-7.296 19.268-7.296s13.77 3.22 19.269 7.296c6.21 4.603 13.248 9.82 26.913 9.82s20.703-5.217 26.912-9.82c5.499-4.076 9.843-7.296 19.269-7.296 3.088 0 5.624.351 7.841.958 3.088-3.367 6.095-6.808 9.003-10.335z"/><path d="m370.465 474.089c-6.21-4.603-13.248-9.82-26.913-9.82s-20.703 5.217-26.913 9.82c-5.499 4.076-9.842 7.296-19.268 7.296s-13.769-3.22-19.268-7.296c-6.21-4.603-13.248-9.82-26.912-9.82s-20.701 5.217-26.91 9.821c-5.498 4.076-9.841 7.296-19.265 7.296-9.425 0-13.769-3.22-19.267-7.296-6.21-4.603-13.248-9.821-26.912-9.821v12.837c9.425 0 13.769 3.22 19.267 7.296 6.21 4.603 13.248 9.821 26.912 9.821s20.701-5.217 26.91-9.821c5.498-4.076 9.841-7.296 19.265-7.296 9.425 0 13.769 3.22 19.267 7.296 6.21 4.603 13.248 9.821 26.913 9.821s20.703-5.217 26.913-9.82c5.499-4.076 9.842-7.296 19.268-7.296s13.77 3.22 19.269 7.296c.819.607 1.654 1.224 2.514 1.839 4.558-2.174 9.039-4.482 13.443-6.913-3.018-1.319-5.518-3.168-8.313-5.24z"/></g><g><path d="m207.661 241.049h-207.246c-.267 4.785-.415 9.6-.415 14.451 0 141.109 114.391 255.5 255.5 255.5 24.232 0 47.676-3.374 69.888-9.677z" fill="#ffe046"/></g><path d="m197.073 291.939c-3.613 2.415-7.772 4.007-12.068 4.469l96.474 213.286c4.475-.452 8.915-1.022 13.32-1.702z" fill="#fcb54c"/><path d="m163.076 314.076c-.925.768-1.904 1.495-2.948 2.168-2.64 1.702-5.602 2.771-8.679 3.274l86.33 190.86c4.749.326 9.534.517 14.352.58z" fill="#fcb54c"/><path d="m131.867 342.374c-3.3 2.643-7.256 4.533-11.615 5.469l69.989 154.733c5.178 1.364 10.42 2.566 15.721 3.608z" fill="#fcb54c"/><path d="m62.522 286.36c-2.481 1.833-5.296 3.299-8.365 4.293-1.129.366-2.272.626-3.418.805l86.101 190.354c5.859 3.078 11.848 5.94 17.964 8.565z" fill="#fcb54c"/><path d="m31.117 314.226c-3.009 2.715-6.599 4.835-10.526 6.106-.236.076-.472.138-.709.206l49.984 110.506c7.6 8.034 15.718 15.572 24.297 22.567z" fill="#fcb54c"/><path d="m191.422 301.44c4.663 0 7.77-4.815 5.848-9.064l-24.302-53.727c-1.449-3.202-5.179-4.879-8.424-3.526-3.357 1.399-4.871 5.283-3.384 8.572l24.413 53.972c1.04 2.297 3.328 3.773 5.849 3.773z" fill="#fff5aa"/><path d="m157.641 324.052c4.663 0 7.77-4.815 5.848-9.064l-34.641-76.585c-1.462-3.23-5.264-4.664-8.493-3.203-3.23 1.461-4.664 5.264-3.203 8.493l34.641 76.585c1.039 2.298 3.327 3.774 5.848 3.774z" fill="#fff5aa"/><path d="m126.181 351.284c4.664 0 7.769-4.821 5.839-9.067l-47.181-103.813c-1.461-3.23-5.263-4.664-8.493-3.203s-4.664 5.264-3.203 8.493l47.2 103.831c1.04 2.29 3.323 3.759 5.838 3.759z" fill="#fff5aa"/><path d="m56.198 294.374c4.663 0 7.77-4.815 5.848-9.064l-21.106-46.661c-1.449-3.202-5.179-4.879-8.424-3.526-3.357 1.399-4.871 5.283-3.384 8.572l21.218 46.905c1.039 2.298 3.327 3.774 5.848 3.774z" fill="#fff5aa"/><path d="m25.613 324.052c4.663 0 7.77-4.815 5.848-9.064l-31.262-69.116c-.119 3.197-.199 6.403-.199 9.628 0 7.917.38 15.745 1.084 23.479l18.681 41.3c1.039 2.297 3.327 3.773 5.848 3.773z" fill="#fff5aa"/></g><path d="m261.177 61.555c-18.545 0-34.285 12.005-39.875 28.667l21.658 35.881 34.584 16.246c15.092-6.383 25.682-21.327 25.682-38.745 0-23.223-18.826-42.049-42.049-42.049z" fill="#ffe046"/><path d="m275.305 132.438c-20.188-2.236-36.062-18.965-37.258-39.24-.012-.201-.022-.402-.031-.603-.43-9.539-13.673-11.424-16.712-2.372-1.707 5.085-2.468 10.604-2.074 16.349 1.446 21.06 18.732 37.988 39.816 39.029 6.499.321 12.693-.835 18.279-3.161 4.98-2.074 3.798-9.417-1.57-9.955-.15-.014-.3-.03-.45-.047z" fill="#fcb54c"/><g fill="#fff"><path d="m440.888 163.575h-.059c-2.449 0-3.94-2.569-2.869-4.771.776-1.595 1.167-3.411 1.052-5.33-.342-5.703-5.305-10.038-11.018-10.038h-60.227c-5.713 0-10.676 4.335-11.018 10.038-.005.076-.008.152-.011.228-.216 5.481-4.576 9.873-10.061 9.873h-40.613c-5.698 0-10.673 4.3-11.041 9.986-.403 6.231 4.531 11.41 10.675 11.41 1.988 0 3.162 2.305 1.92 3.858-1.564 1.955-2.455 4.472-2.321 7.202.282 5.755 5.275 10.161 11.037 10.161h61.756c5.762 0 10.755-4.406 11.037-10.161.004-.088.008-.175.01-.263.15-5.976 4.901-10.796 10.879-10.796h41.241c6.144 0 11.078-5.179 10.675-11.41-.372-5.688-5.347-9.987-11.044-9.987z"/><path d="m234.438 128.984c-.368-5.686-5.343-9.986-11.041-9.986h-7.053-5.773-2.652c-4.53 0-8.203-3.673-8.203-8.203v-2.517c0-4.53 3.673-8.203 8.203-8.203.05-.001.097-.009.147-.009 5.698 0 10.673-4.3 11.041-9.986.403-6.231-4.531-11.41-10.675-11.41h-85.058c-5.851 0-10.901 4.538-11.068 10.387-.003.089-.004.179-.004.267-.023 5.862-4.649 10.652-10.511 10.652h-8.089c-5.413 0-10.215 3.89-10.916 9.258-.033.255-.058.509-.073.761-.309 5.004-4.24 9.002-9.254 9.002h-24.222c-5.698 0-10.673 4.3-11.041 9.986-.403 6.231 4.531 11.409 10.675 11.409h86.116c5.413 0 10.215-3.89 10.916-9.258.033-.255.058-.509.073-.761.309-5.004 4.24-9.002 9.253-9.002h12.27c5.038 0 9.259 3.907 9.541 8.937.013.224.031.445.059.673.646 5.407 5.358 9.41 10.804 9.41h35.86c6.144.002 11.078-5.177 10.675-11.407z"/></g></g></svg>